{"accessors" : [{"bufferView" : 0, "byteOffset" : 0, "componentType" : 5123, "count" : 30504, "type" : "SCALAR", "max" : [24976], "min" : [0]}, {"bufferView" : 1, "byteOffset" : 0, "componentType" : 5126, "count" : 24977, "type" : "VEC3", "max" : [0.15700000524520874, 0.03200000151991844, 0.2879999876022339], "min" : [-0.21299999952316284, -0.027000000700354576, -0.03700000047683716], "name" : "POSITION"}, {"bufferView" : 1, "byteOffset" : 12, "componentType" : 5126, "count" : 24977, "type" : "VEC2", "max" : [0.9968000054359436, -0.5414999723434448], "min" : [0.0024999999441206455, -0.9975000023841858], "name" : "TEXCOORD_0"}], "asset" : {"generator" : "Aspose.3D 22.6", "version" : "2.0"}, "buffers" : [{"uri" : "data:application/octet-stream;base64,", "byteLength" : 671096}], "bufferViews" : [{"buffer" : 0, "byteOffset" : 0, "byteLength" : 61008, "target" : 34963}, {"buffer" : 0, "byteOffset" : 61012, "byteLength" : 610080, "byteStride" : 20, "target" : 34962}], "materials" : [{"name" : "defaultMaterial", "pbrMetallicRoughness" : {"baseColorFactor" : [0, 0, 0, 1], "metallicFactor" : 0, "roughnessFactor" : 1}, "emissiveFactor" : [0, 0, 0], "alphaMode" : "OPAQUE", "doubleSided" : false}], "meshes" : [{"primitives" : [{"attributes" : {"POSITION" : 1, "TEXCOORD_0" : 2}, "indices" : 0, "material" : 0, "mode" : 4}], "name" : "default"}], "nodes" : [{"mesh" : 0, "name" : "scan"}], "scene" : 0, "scenes" : [{"nodes" : [0]}]}